<svg width="13" height="13" viewBox="0 0 13 13" fill="none" xmlns="http://www.w3.org/2000/svg">
<path fill-rule="evenodd" clip-rule="evenodd" d="M3.01074 1.01089H6.85234C7.95684 1.01089 8.85234 1.90629 8.85234 3.01089V6.85249C8.85234 7.957 7.95684 8.85239 6.85234 8.85239H3.01074C1.90614 8.85239 1.01074 7.957 1.01074 6.85249V3.01089C1.01074 1.90629 1.90614 1.01089 3.01074 1.01089Z" fill="white" stroke="#C2C4C8"/>
<path fill-rule="evenodd" clip-rule="evenodd" d="M6.14756 4.14749H9.98906C11.0937 4.14749 11.9891 5.04289 11.9891 6.14749V9.98909C11.9891 11.0937 11.0937 11.9892 9.98906 11.9892H6.14756C5.04296 11.9892 4.14746 11.0937 4.14746 9.98909V6.14749C4.14746 5.04289 5.04296 4.14749 6.14756 4.14749Z" fill="white" stroke="#C2C4C8"/>
</svg>
