<?xml version="1.0" encoding="UTF-8"?>
<svg id="Layer_1" xmlns="http://www.w3.org/2000/svg" version="1.1" viewBox="0 0 720 228">
  <!-- Generator: Adobe Illustrator 29.4.0, SVG Export Plug-In . SVG Version: 2.1.0 Build 152)  -->
  <defs>
    <style>
      .st0 {
        fill: #416baa;
      }

      .st1 {
        fill: #15294c;
      }

      .st2 {
        fill: #254c82;
      }

      .st3 {
        fill: #b8b5b1;
      }
    </style>
  </defs>
  <g id="Layer_2">
    <g>
      <g>
        <path class="st1" d="M601.7,132.6c-8.1-8.2-12.3-22.3-12.3-42.2s4-34,12.1-42.3c8.1-8.3,23.5-12.4,46-12.4h72.4c0,0-28.2-35.6-28.2-35.6h-45.5c-36.4.1-62.9,7.4-79.4,22-7.6,6.5-13.3,15-17.4,25.1,4.6,12.3,6.8,26.8,6.8,43.3s-2.3,30.9-6.8,43.3c4.1,10,9.9,18.5,17.4,25.1,16.6,14.5,43.1,21.8,79.5,21.7h42.2c0,0,27.9-35.7,27.9-35.7h-68.8c-22.5,0-37.8-4.1-46-12.3Z"/>
        <path class="st1" d="M405.8.3h-32.1c0,0-8.9,0-8.9,0-8.5.1-15.8,4.1-22,12l-34.5,43.8-34.5-43.8c-6.3-8-13.7-11.9-22.1-11.9h-27.1c-4.6,0-6.9,1.9-6.9,5.8s.9,4,2.7,6.2l59.8,75.7-63.4,81c-1.8,2.3-2.7,4.3-2.7,6.2.5,3.8,2.8,5.7,7,5.7h26.8c8.4,0,15.7-3.9,21.9-11.8l38.3-49,38.5,48.9c6.2,7.9,13.5,11.8,21.9,11.8h40.7c0,0-73-92.8-73-92.8L405.8.3Z"/>
        <path class="st1" d="M523.9,158.9c7.6-6.7,13.3-15.1,17.4-25.1,1.6-3.9,3-8.1,4.1-12.5,2.2-9.2,3.3-19.4,3.3-30.8s-1.2-21.6-3.4-30.8c-1.1-4.4-2.5-8.6-4.1-12.5-4.1-10-9.9-18.5-17.4-25.1C507.1,7.5,480.6.2,444.2.3h-28.8s-28.2,35.7-28.2,35.7h55.6c22.6,0,38,4,46.1,12.3,8.1,8.3,12.3,22.4,12.3,42.3s-4,34-12.1,42.2c-8.1,8.3-23.5,12.4-46,12.4h-52c0,0,28,35.6,28,35.6h25.4c36.4,0,62.9-7.3,79.4-21.9Z"/>
        <polygon class="st0" points="382.4 134 382.3 42.5 346.3 88.3 382.4 134"/>
        <path class="st0" d="M664,207.8l13.7-14c.2-.2.3-.7.2-1-.1-.4-.5-.6-.9-.6h-4.9c-.2,0-.5.1-.7.3l-17.5,18.2v-17.6c0-.5-.4-.9-.9-.9h-3.8c-.5,0-.9.4-.9.9v33.3c0,.5.5.9,1,.9h3.8c.5,0,.9-.4.9-.9v-8.6l6.1-6.2,12.1,15.3c.2.2.4.4.7.4h4.7c.4,0,.7-.2.8-.5.1-.3.1-.7-.1-1l-14.4-18.2Z"/>
        <path class="st0" d="M632.6,213.5c.9-.2,1.7-.6,2.4-.9,1.2-.6,2.2-1.3,3.1-2.2.9-.9,1.6-2,2.1-3.1.5-1.2.7-2.6.7-4.1s-.3-3.1-.9-4.4c-.6-1.4-1.5-2.5-2.7-3.5s-2.5-1.7-4.1-2.2c-1.5-.5-3.3-.7-5.2-.7h-14.3c-.5,0-.9.4-.9.9v33.3c0,.5.5.9,1,.9h3.8c.5,0,.9-.4.9-.9v-12h8.1l9.4,12.6c.2.2.4.4.7.4h4.6c.4,0,.7-.2.8-.5.2-.3.1-.7,0-1l-9.6-12.5ZM627.7,209.3h-9.3v-11.7h9.4c2.5,0,4.4.5,5.7,1.5,1.3,1,1.9,2.3,1.9,4.2s-.2,1.8-.6,2.5-.9,1.4-1.5,1.8-1.5.9-2.4,1.2c-1,.2-2.1.4-3.2.4Z"/>
        <path class="st0" d="M603,197.1c-1.5-1.7-3.5-3-5.7-3.9-2.2-1-4.6-1.5-7.3-1.5s-5.1.5-7.3,1.5c-2.2,1-4.1,2.3-5.7,4s-2.8,3.6-3.6,5.8-1.3,4.5-1.3,6.9.4,4.7,1.3,6.9c.9,2.2,2.1,4.1,3.6,5.8,1.6,1.7,3.5,3,5.7,3.9,2.2,1,4.6,1.5,7.3,1.5s5.1-.5,7.3-1.5c2.2-1,4.1-2.3,5.7-4s2.8-3.6,3.6-5.8,1.3-4.5,1.3-7-.4-4.7-1.3-6.9c-.9-2.1-2.1-4.1-3.6-5.7ZM601.3,214.9c-.6,1.5-1.4,2.9-2.5,4.1-1,1.1-2.3,2-3.8,2.7s-3.1,1-4.9,1-3.4-.3-4.9-1-2.8-1.6-3.9-2.8-2-2.5-2.5-4.1c-.6-1.5-.9-3.3-.9-5.1s.3-3.5.9-5,1.4-2.9,2.5-4.1c1-1.1,2.3-2,3.8-2.7s3.1-1,4.9-1,3.4.3,4.9,1,2.8,1.6,3.9,2.7,1.9,2.5,2.5,4.1c.6,1.6.9,3.3.9,5.1,0,1.8-.4,3.5-.9,5.1Z"/>
        <path class="st0" d="M569.4,192.4h-3.9c-.4,0-.7.2-.9.6l-8.6,25.1-8.3-25.2c-.1-.4-.5-.6-.9-.6h-3.1c-.4,0-.7.2-.9.6l-8.3,25.2-8.6-25.1c-.1-.4-.5-.6-.9-.6h-4.1c-.3,0-.6.1-.7.4s-.2.6-.1.9l12,33.5c.1.4.5.6.9.6h3.1c.4,0,.7-.2.9-.6l8.3-24.5,8.2,24.5c.1.4.5.6.9.6h3.2c.4,0,.7-.2.9-.6l11.8-33.5c0-.1.1-.2.1-.4,0-.5-.4-.9-.9-.9Z"/>
        <path class="st0" d="M516.4,192.4h-26.1c-.5,0-.9.4-.9.9v3.5c0,.5.4.9.9.9h10.2v28.9c0,.5.5.9,1,.9h3.8c.5,0,.9-.4.9-.9v-28.9c0,0,10.2,0,10.2,0,.5,0,.9-.4.9-.9v-3.5c0-.6-.4-.9-.9-.9Z"/>
        <path class="st0" d="M485.1,222.3h-19.7v-9.8h17.3c.5,0,.9-.4.9-.9v-3.5c0-.5-.4-.9-.9-.9h-17.3v-9.6h19.4c.5,0,.9-.4.9-.9v-3.5c0-.5-.4-.9-.9-.9h-24.1c-.5,0-.9.4-.9.9v33.3c0,.5.5.9,1,.9h24.3c.5,0,.9-.4.9-.9v-3.5c0-.4-.4-.9-1-.9Z"/>
        <path class="st0" d="M451.3,192.5h-3.6c-.5,0-.9.4-.9.9v24l-19.4-24.6c-.2-.2-.4-.4-.7-.4h-3.5c-.5,0-.9.4-.9.9v33.3c0,.5.5.9,1,.9h3.6c.5,0,.9-.4.9-.9v-24.7l19.9,25.2c.2.2.4.4.7.4h3c.5,0,.9-.4.9-.9v-33.3c-.1-.6-.5-.9-1-.9Z"/>
      </g>
      <g>
        <g id="Shape_1">
          <path class="st3" d="M180.8,81.7C160-38.6,3-15.3.1,81.7c9.1,4.7,14.7,7.6,14.7,7.6,0,0-4.8,2.9-14.9,9.3,18.2,117.9,172.6,100.8,180.8-.2-9.8-6-15.2-9.2-15.2-9.2,0,0,4.6-2.2,15.2-7.5ZM103.5,123.7l-14.7-25.3-15,25.3-11.3-.8,21.3-35.9-19.2-31,11.6-1,13.7,23,13.7-21.9,10.8.2-17.9,30.5,19.7,36.7-12.6.3Z"/>
        </g>
        <g id="Shape_11" data-name="Shape_1">
          <path class="st2" d="M173.4,77C145.3-29.9,16.3-1,7.5,77c17.9,10,21.9,12.4,21.9,12.4,0,0-6.9,4.4-22,14,19.2,102.7,158.4,83,166-.1-14.1-8.8-22.3-13.9-22.3-13.9,0,0,18.9-10.5,22.3-12.4ZM103.5,123.8l-14.7-25.3-15,25.3-11.3-.8,21.3-35.9-19.2-31,11.6-1,13.7,23,13.7-21.9,10.8.2-17.9,30.5,19.7,36.7-12.6.3Z"/>
        </g>
      </g>
    </g>
  </g>
</svg>