<svg width="18" height="19" viewBox="0 0 18 19" fill="none" xmlns="http://www.w3.org/2000/svg">
<path d="M18.0005 9.24086C18.0005 13.9081 14.6309 17.7666 10.2538 18.3929C9.84444 18.4514 9.4257 18.4817 9.00075 18.4817C8.50998 18.4817 8.02853 18.4413 7.55901 18.3636C3.27317 17.6553 0.000488281 13.8405 0.000488281 9.24086C0.000488281 4.13726 4.0298 0 9.00023 0C13.9707 0 18 4.13726 18 9.24086H18.0005Z" fill="#9295A3"/>
<path d="M10.2538 7.41937V9.43239H12.6792L12.2952 12.1446H10.2538V18.3928C9.84442 18.4514 9.42568 18.4817 9.00073 18.4817C8.50995 18.4817 8.02851 18.4412 7.55899 18.3636V12.1446H5.32227V9.43239H7.55899V6.96972C7.55899 5.44146 8.76545 4.20215 10.2543 4.20215V4.20375C10.2585 4.20375 10.2626 4.20215 10.2668 4.20215H12.6797V6.54722H11.1032C10.6342 6.54722 10.2543 6.93726 10.2543 7.41884L10.2538 7.41937Z" fill="white"/>
</svg>
