<svg width="18" height="18" viewBox="0 0 18 18" fill="none" xmlns="http://www.w3.org/2000/svg">
<path d="M8.98383 0C4.02312 0 0.000488281 4.09046 0.000488281 9.13671C0.000488281 13.1736 2.57449 16.5985 6.14384 17.8066C6.5928 17.8912 6.75763 17.6084 6.75763 17.3671C6.75763 17.1492 6.7493 16.4295 6.74543 15.666C4.24626 16.2187 3.7189 14.588 3.7189 14.588C3.31026 13.5319 2.72146 13.2511 2.72146 13.2511C1.90641 12.684 2.7829 12.6956 2.7829 12.6956C3.68498 12.7599 4.15998 13.6372 4.15998 13.6372C4.9612 15.034 6.26151 14.6302 6.77414 14.3967C6.85477 13.8064 7.08758 13.403 7.34449 13.175C5.34917 12.9439 3.25165 12.1605 3.25165 8.6595C3.25165 7.66196 3.60257 6.84689 4.17723 6.20704C4.08396 5.97675 3.77647 5.0476 4.26426 3.78907C4.26426 3.78907 5.01862 3.54351 6.73532 4.72563C7.45189 4.52319 8.22039 4.42167 8.98383 4.41819C9.74727 4.42167 10.5164 4.52319 11.2343 4.72563C12.9489 3.54351 13.7022 3.78907 13.7022 3.78907C14.1912 5.0476 13.8835 5.97675 13.7903 6.20704C14.3663 6.84689 14.7148 7.66196 14.7148 8.6595C14.7148 12.1688 12.6133 12.9415 10.6129 13.1677C10.9351 13.4512 11.2222 14.0073 11.2222 14.8597C11.2222 16.0821 11.2118 17.066 11.2118 17.3671C11.2118 17.6103 11.3735 17.8952 11.8289 17.8054C15.3963 16.5959 17.967 13.1722 17.967 9.13671C17.967 4.09046 13.945 0 8.98383 0Z" fill="#9295A3"/>
</svg>
