<svg width="16" height="15" viewBox="0 0 16 15" fill="none" xmlns="http://www.w3.org/2000/svg">
<path fill-rule="evenodd" clip-rule="evenodd" d="M8 1C11.3137 1 14 3.6863 14 7.0001C14 10.3138 11.3137 13 8 13C4.6863 13 2 10.3138 2 7.0001C2 3.6863 4.6863 1 8 1Z" fill="#D8DDE5"/>
<path opacity="0.74902" d="M8.81552 5.75391V9.5H8.24814V5.75391H8.81552ZM8.53867 4.35254C8.63209 4.35254 8.71184 4.3833 8.77792 4.44482C8.84628 4.50407 8.88046 4.59749 8.88046 4.7251C8.88046 4.85042 8.84628 4.94385 8.77792 5.00537C8.71184 5.06689 8.63209 5.09766 8.53867 5.09766C8.44068 5.09766 8.35865 5.06689 8.29257 5.00537C8.22877 4.94385 8.19687 4.85042 8.19687 4.7251C8.19687 4.59749 8.22877 4.50407 8.29257 4.44482C8.35865 4.3833 8.44068 4.35254 8.53867 4.35254Z" fill="#293141"/>
</svg>
