<svg width="106" height="34" viewBox="0 0 106 34" fill="none" xmlns="http://www.w3.org/2000/svg">
<path d="M88.6292 19.428C87.4375 18.2273 86.8327 16.16 86.8327 13.244C86.8327 10.328 87.4195 8.26067 88.6111 7.05094C89.8028 5.84122 92.0507 5.22733 95.3549 5.22733L105.963 5.2183L101.828 0.00927734L95.1563 0.0183052C89.8209 0.0273329 85.9389 1.09261 83.5195 3.23219C82.4091 4.18914 81.5695 5.43497 80.9736 6.9065C81.6417 8.71206 81.9757 10.8336 81.9757 13.253C81.9757 15.6725 81.6417 17.785 80.9827 19.5996C81.5875 21.0711 82.4271 22.3079 83.5375 23.2739C85.966 25.3954 89.8479 26.4607 95.1834 26.4516L101.358 26.4426L105.448 21.2246L95.3729 21.2336C92.0778 21.2336 89.8299 20.6287 88.6292 19.428Z" fill="#15294C"/>
<path d="M59.9389 0.0454102L55.2354 0.054438H53.9264C52.6806 0.0724935 51.6063 0.650271 50.7035 1.80583L45.6569 8.22458L40.6014 1.81485C39.6715 0.650272 38.5972 0.0724934 37.3694 0.0724934H33.4062C32.7292 0.0724934 32.3951 0.352355 32.3951 0.921105C32.3951 1.20097 32.5215 1.50791 32.7833 1.82388L41.5493 12.91L32.2688 24.7815C32.0069 25.1156 31.8806 25.4135 31.8806 25.6843C31.9528 26.235 32.2958 26.5149 32.9097 26.5149H36.8368C38.0646 26.5149 39.1389 25.9371 40.0417 24.7815L45.6569 17.6044L51.2903 24.7725C52.2021 25.9281 53.2674 26.5058 54.5042 26.5058L60.4625 26.4968L49.7736 12.91L59.9389 0.0454102Z" fill="#15294C"/>
<path d="M77.2361 23.2739C78.3466 22.2989 79.1861 21.0621 79.782 19.5905C80.0167 19.0128 80.2243 18.4079 80.3778 17.7579C80.7028 16.4128 80.8653 14.9142 80.8653 13.253C80.8653 11.5919 80.6938 10.0843 80.3688 8.74818C80.2063 8.09818 79.9986 7.48429 79.7639 6.91554C79.1591 5.44402 78.3195 4.20721 77.2091 3.23221C74.7806 1.10166 70.8986 0.0363782 65.5632 0.045406H61.3473L57.2216 5.27249L65.3646 5.26346C68.6688 5.26346 70.9257 5.85929 72.1174 7.06902C73.3091 8.27874 73.9139 10.3461 73.9139 13.2621C73.9139 16.178 73.3271 18.2454 72.1354 19.4461C70.9438 20.6558 68.6959 21.2607 65.3917 21.2607L57.7723 21.2697L61.8799 26.4787H65.5993C70.9348 26.4787 74.8077 25.4044 77.2361 23.2739Z" fill="#15294C"/>
<path d="M56.5174 19.6266L56.4993 6.2204L51.2271 12.928L56.5174 19.6266Z" fill="#416BAA"/>
<path d="M97.7653 30.4329L99.7694 28.3836C99.8056 28.3475 99.8146 28.2843 99.7965 28.2391C99.7785 28.185 99.7243 28.1579 99.6701 28.1579H98.9569C98.9208 28.1579 98.8847 28.176 98.8576 28.203L96.2938 30.8753V28.2933C96.2938 28.2211 96.2306 28.1579 96.1583 28.1579H95.6076C95.5354 28.1579 95.4722 28.2211 95.4722 28.2933L95.4813 33.1773C95.4813 33.2496 95.5444 33.3128 95.6167 33.3128H96.1674C96.2396 33.3128 96.3028 33.2496 96.3028 33.1773V31.9225L97.1965 31.0197L98.975 33.2586C99.0021 33.2947 99.0382 33.3128 99.0833 33.3128H99.7694C99.8236 33.3128 99.8687 33.2857 99.8868 33.2405C99.9049 33.1954 99.9049 33.1412 99.8688 33.0961L97.7653 30.4329Z" fill="#416BAA"/>
<path d="M93.1611 31.2725C93.2875 31.2364 93.4049 31.1912 93.5132 31.1371C93.6847 31.0558 93.8382 30.9475 93.9736 30.8121C94.1 30.6857 94.2083 30.5232 94.2805 30.3517C94.3528 30.1711 94.3889 29.9725 94.3889 29.7558C94.3889 29.5211 94.3437 29.2954 94.2535 29.1058C94.1632 28.9072 94.0278 28.7357 93.8653 28.6003C93.7028 28.4648 93.4951 28.3565 93.2694 28.2753C93.0437 28.203 92.7819 28.1669 92.5021 28.1669H90.4076C90.3354 28.1669 90.2722 28.2301 90.2722 28.3023L90.2812 33.1864C90.2812 33.2586 90.3444 33.3218 90.4167 33.3218H90.9674C91.0396 33.3218 91.1028 33.2586 91.1028 33.1864V31.426H92.2944L93.6667 33.2676C93.6937 33.3037 93.7299 33.3218 93.775 33.3218H94.4521C94.5062 33.3218 94.5514 33.2947 94.5694 33.2496C94.5965 33.2044 94.5875 33.1503 94.5604 33.1051L93.1611 31.2725ZM92.4479 30.6586H91.0847V28.9433H92.4569C92.8181 28.9433 93.1069 29.0155 93.2965 29.169C93.4861 29.3135 93.5764 29.5121 93.5764 29.7829C93.5764 29.9183 93.5493 30.0447 93.4951 30.153C93.441 30.2614 93.3687 30.3517 93.2694 30.4239C93.1701 30.4961 93.0528 30.5593 92.9174 30.6044C92.7729 30.6405 92.6104 30.6586 92.4479 30.6586Z" fill="#416BAA"/>
<path d="M88.8278 28.8711C88.6021 28.6274 88.3222 28.4378 87.9972 28.2933C87.6722 28.1489 87.3202 28.0767 86.932 28.0767C86.5438 28.0767 86.1826 28.1489 85.8576 28.2933C85.5326 28.4378 85.2528 28.6364 85.0271 28.8801C84.8014 29.1239 84.6208 29.4128 84.4945 29.7287C84.3681 30.0447 84.3049 30.3878 84.3049 30.7399C84.3049 31.0919 84.3681 31.435 84.4945 31.751C84.6208 32.0669 84.8014 32.3558 85.0271 32.5996C85.2618 32.8433 85.5326 33.0329 85.8576 33.1774C86.1826 33.3218 86.5347 33.394 86.9229 33.394C87.3111 33.394 87.6722 33.3218 87.9972 33.1774C88.3222 33.0329 88.6021 32.8343 88.8278 32.5905C89.0535 32.3468 89.234 32.0579 89.3604 31.7419C89.4868 31.426 89.55 31.0829 89.55 30.7218C89.55 30.3697 89.4868 30.0267 89.3604 29.7107C89.234 29.4037 89.0535 29.1149 88.8278 28.8711ZM88.575 31.4801C88.4847 31.7058 88.3674 31.9044 88.2049 32.076C88.0514 32.2385 87.8618 32.3739 87.6451 32.4732C87.4285 32.5725 87.1938 32.6176 86.932 32.6176C86.6702 32.6176 86.4354 32.5725 86.2188 32.4732C86.0021 32.3739 85.8125 32.2385 85.65 32.0669C85.4875 31.8954 85.3611 31.6968 85.2799 31.4711C85.1896 31.2454 85.1445 30.9926 85.1445 30.7308C85.1445 30.469 85.1896 30.2253 85.2799 29.9996C85.3702 29.7739 85.4875 29.5753 85.65 29.4037C85.8035 29.2412 85.9931 29.1058 86.2097 29.0065C86.4264 28.9072 86.6701 28.8621 86.9229 28.8621C87.1847 28.8621 87.4195 28.9072 87.6361 29.0065C87.8528 29.1058 88.0424 29.2412 88.2049 29.4037C88.3674 29.5662 88.4847 29.7739 88.575 29.9996C88.6653 30.2343 88.7104 30.478 88.7104 30.7399C88.7014 31.0107 88.6563 31.2544 88.575 31.4801Z" fill="#416BAA"/>
<path d="M83.9076 28.176H83.3298C83.2757 28.176 83.2215 28.2121 83.2035 28.2662L81.9396 31.9496L80.7208 28.2572C80.7028 28.203 80.6486 28.1669 80.5944 28.1669H80.143C80.0889 28.1669 80.0347 28.203 80.0166 28.2572L78.8069 31.9496L77.543 28.2662C77.525 28.2121 77.4708 28.176 77.4166 28.176H76.8208C76.7757 28.176 76.7396 28.194 76.7125 28.2301C76.6854 28.2662 76.6854 28.3114 76.6944 28.3565L78.4458 33.2676C78.4639 33.3218 78.518 33.3579 78.5722 33.3579H79.0326C79.0868 33.3579 79.141 33.3218 79.159 33.2676L80.3687 29.6836L81.5694 33.2676C81.5875 33.3218 81.6416 33.3579 81.6958 33.3579H82.1653C82.2194 33.3579 82.2736 33.3218 82.2916 33.2676L84.025 28.3655C84.034 28.3475 84.043 28.3294 84.043 28.3023C84.034 28.2301 83.9798 28.176 83.9076 28.176Z" fill="#416BAA"/>
<path d="M76.1437 28.185H72.316C72.2437 28.185 72.1805 28.2482 72.1805 28.3204V28.826C72.1805 28.8982 72.2437 28.9614 72.316 28.9614H73.8146L73.8236 33.1954C73.8236 33.2676 73.8868 33.3308 73.959 33.3308H74.5097C74.5819 33.3308 74.6451 33.2676 74.6451 33.1954L74.6361 28.9614H76.1347C76.2069 28.9614 76.2701 28.8982 76.2701 28.826V28.3204C76.2792 28.2392 76.216 28.185 76.1437 28.185Z" fill="#416BAA"/>
<path d="M71.5577 32.5635H68.6778V31.128H71.2056C71.2778 31.128 71.341 31.0649 71.341 30.9926V30.4871C71.341 30.4149 71.2778 30.3517 71.2056 30.3517H68.6778V28.9524H71.5215C71.5938 28.9524 71.657 28.8892 71.657 28.8169V28.3114C71.657 28.2392 71.5938 28.176 71.5215 28.176H67.9917C67.9195 28.176 67.8563 28.2392 67.8563 28.3114L67.8653 33.1954C67.8653 33.2676 67.9285 33.3308 68.0007 33.3308H71.5667C71.6389 33.3308 71.7021 33.2676 71.7021 33.1954V32.6899C71.6931 32.6267 71.6389 32.5635 71.5577 32.5635Z" fill="#416BAA"/>
<path d="M66.6104 28.194H66.0778C66.0056 28.194 65.9424 28.2572 65.9424 28.3294V31.8502L63.1076 28.2481C63.0806 28.212 63.0444 28.194 62.9993 28.194H62.4847C62.4125 28.194 62.3493 28.2572 62.3493 28.3294L62.3583 33.2134C62.3583 33.2856 62.4215 33.3488 62.4937 33.3488H63.0264C63.0986 33.3488 63.1618 33.2856 63.1618 33.2134V29.6023L66.0778 33.2947C66.1049 33.3308 66.141 33.3488 66.1861 33.3488H66.6285C66.7007 33.3488 66.7639 33.2856 66.7639 33.2134L66.7549 28.3294C66.7458 28.2481 66.6917 28.194 66.6104 28.194Z" fill="#416BAA"/>
<path d="M26.9785 11.9711C23.9361 -5.65114 0.933333 -2.23864 0.518056 11.9711C1.84514 12.6572 2.67569 13.0815 2.67569 13.0815C2.67569 13.0815 1.97153 13.5058 0.5 14.4447C3.16319 31.7148 25.7778 29.2051 26.9785 14.4176C25.5431 13.5329 24.7576 13.0725 24.7576 13.0725C24.7576 13.0725 25.4257 12.7475 26.9785 11.9711ZM15.6576 18.119L13.5 14.4086L11.3062 18.119L9.64514 18.0016L12.7687 12.7384L9.95208 8.19747L11.6493 8.044L13.6535 11.4114L15.6576 8.19747L17.2375 8.23358L14.6194 12.7023L17.5083 18.0739L15.6576 18.119Z" fill="#B8B5B1"/>
<path d="M25.9041 11.276C21.7875 -4.3782 2.88331 -0.14417 1.59234 11.276C4.2104 12.7475 4.80623 13.0996 4.80623 13.0996C4.80623 13.0996 3.79512 13.7496 1.58331 15.1489C4.39998 30.1982 24.7847 27.3093 25.9041 15.1308C23.8458 13.8399 22.6361 13.0906 22.6361 13.0906C22.6361 13.0906 25.4076 11.5468 25.9041 11.276ZM15.6576 18.1371L13.5 14.4267L11.3062 18.1371L9.64512 18.0197L12.7687 12.7565L9.95206 8.21555L11.6493 8.06208L13.6535 11.4294L15.6576 8.21555L17.2375 8.25166L14.6194 12.7204L17.5083 18.0919L15.6576 18.1371Z" fill="#254C82"/>
</svg>
