<svg width="18" height="18" viewBox="0 0 18 18" fill="none" xmlns="http://www.w3.org/2000/svg">
<path d="M18.0005 9.00026C18.0005 13.5457 14.6308 17.3035 10.2536 17.9135C9.84421 17.9705 9.42546 18 9.00049 18C8.5097 18 8.02824 17.9606 7.55871 17.8849C3.27378 17.1952 0.000488281 13.4794 0.000488281 8.99974C0.000488281 4.02931 4.02991 0 9.00049 0C13.9711 0 18.0005 4.02931 18.0005 8.99974V9.00026Z" fill="#9295A3"/>
<path d="M14.6448 8.77172C14.4935 8.08609 13.8669 7.64093 13.245 7.77826C13.0336 7.82491 12.8506 7.93425 12.706 8.0835C11.8696 7.47561 10.7268 7.07449 9.45086 6.99831L10.0619 4.45531L11.8737 4.88908C11.9038 5.38452 12.3142 5.77682 12.8169 5.77682C13.3196 5.77682 13.7633 5.35342 13.7633 4.83052C13.7633 4.30762 13.3398 3.88422 12.8169 3.88422C12.4381 3.88422 12.1126 4.10706 11.9613 4.42837L9.99555 3.9578C9.84111 3.92101 9.68563 4.01584 9.64832 4.1708L8.97199 6.98484C7.54887 6.99209 6.26464 7.4041 5.34266 8.0633C5.29757 8.02132 5.24886 7.98193 5.19548 7.94824C4.65857 7.60569 3.91695 7.8078 3.53914 8.39963C3.16133 8.99146 3.28986 9.74912 3.82677 10.0922C3.85838 10.1124 3.89103 10.1305 3.9242 10.1471C3.90295 10.2793 3.89051 10.4135 3.89051 10.5503C3.89051 12.5196 6.18275 14.1158 9.00983 14.1158C11.8369 14.1158 14.1291 12.5196 14.1291 10.5503C14.1291 10.4125 14.1167 10.2767 14.0949 10.143C14.5308 9.88956 14.7687 9.33764 14.6438 8.77224L14.6448 8.77172ZM6.38694 9.72425C6.38694 9.27545 6.75076 8.91217 7.19905 8.91217C7.64734 8.91217 8.01115 9.27597 8.01115 9.72425C8.01115 10.1725 7.64734 10.5363 7.19905 10.5363C6.75076 10.5363 6.38694 10.1725 6.38694 9.72425ZM10.8994 12.289C10.6501 12.516 9.96082 13.0441 8.95127 13.0534C8.94194 13.0534 8.93313 13.0534 8.9238 13.0534C7.90128 13.0534 7.20268 12.5196 6.94821 12.2885C6.86685 12.2144 6.86063 12.0885 6.93474 12.0066C7.00885 11.9252 7.13478 11.919 7.21667 11.9931C7.43848 12.1947 8.05002 12.6627 8.94764 12.6539C9.81986 12.6456 10.4153 12.189 10.6314 11.9931C10.7128 11.919 10.8393 11.9252 10.9134 12.0066C10.9875 12.0879 10.9813 12.2144 10.8999 12.2885L10.8994 12.289ZM10.8014 10.5363C10.3526 10.5363 9.98933 10.1725 9.98933 9.72425C9.98933 9.27597 10.3531 8.91217 10.8014 8.91217C11.2497 8.91217 11.6135 9.27597 11.6135 9.72425C11.6135 10.1725 11.2497 10.5363 10.8014 10.5363Z" fill="white"/>
</svg>
