<svg width="18" height="18" viewBox="0 0 18 18" fill="none" xmlns="http://www.w3.org/2000/svg">
<path d="M18.0005 9.00026C18.0005 13.5457 14.6308 17.3035 10.2536 17.9135C9.84421 17.9705 9.42546 18 9.00049 18C8.5097 18 8.02824 17.9606 7.5587 17.885C3.27378 17.1952 0.000488281 13.4794 0.000488281 8.99974C0.000488281 4.02931 4.02992 0 9.00049 0C13.9711 0 18.0005 4.02931 18.0005 8.99974V9.00026Z" fill="#9295A3"/>
<path d="M3.1924 8.59449C3.2178 8.58153 3.24319 8.56961 3.26858 8.55821C3.70133 8.35765 4.13977 8.17005 4.57769 7.98245C4.60153 7.98245 4.64144 7.9555 4.6632 7.94566C4.69689 7.93115 4.73058 7.91663 4.76479 7.90212C4.82957 7.87414 4.89487 7.84667 4.95965 7.81869C5.08973 7.76323 5.21929 7.70727 5.34937 7.65181C5.60902 7.54091 5.86918 7.42949 6.12883 7.31806C6.64864 7.09574 7.16844 6.87342 7.68825 6.65109C8.20806 6.42877 8.72788 6.20644 9.24768 5.98412C9.76749 5.76179 10.2873 5.53947 10.8071 5.31714C11.3269 5.09482 11.8467 4.87249 12.3665 4.65017C12.4821 4.60094 12.6075 4.52631 12.7309 4.50455C12.835 4.48641 12.9366 4.45013 13.0408 4.43044C13.2393 4.39261 13.4585 4.37706 13.6487 4.45946C13.7145 4.48796 13.7746 4.52838 13.8259 4.57865C14.0669 4.81756 14.0332 5.20935 13.9825 5.54517C13.6269 7.88554 13.2714 10.2254 12.9154 12.5658C12.8666 12.8865 12.8008 13.2389 12.5469 13.4416C12.3323 13.6131 12.0271 13.6328 11.7628 13.5597C11.4979 13.4867 11.2642 13.3327 11.0351 13.1809C10.0847 12.5518 9.13418 11.9221 8.18371 11.293C7.95775 11.1432 7.70639 10.9483 7.70898 10.6773C7.71054 10.514 7.80797 10.3684 7.90747 10.2389C8.73305 9.16196 9.92556 8.4214 10.8118 7.39373C10.9367 7.24914 11.0351 6.98691 10.8636 6.90347C10.7615 6.85372 10.6439 6.9211 10.5511 6.98588C9.37932 7.80003 8.20755 8.61418 7.03577 9.42782C6.6533 9.69316 6.25269 9.96678 5.79196 10.0321C5.37995 10.0906 4.96483 9.97611 4.56577 9.85847C4.2315 9.76001 3.89775 9.65947 3.56503 9.55531C3.3883 9.50037 3.20588 9.44129 3.06906 9.3164C2.93224 9.19202 2.85398 8.98265 2.93638 8.81681C2.98769 8.71265 3.08823 8.64684 3.19344 8.59346L3.1924 8.59449Z" fill="#FEFFFC"/>
</svg>
