<svg width="18" height="18" viewBox="0 0 18 18" fill="none" xmlns="http://www.w3.org/2000/svg">
<path d="M18.0005 9.00026C18.0005 13.5457 14.6308 17.3035 10.2536 17.9135C9.84421 17.9705 9.42546 18 9.00049 18C8.5097 18 8.02824 17.9606 7.5587 17.885C3.27378 17.1952 0.000488281 13.4794 0.000488281 8.99974C0.000488281 4.02931 4.02992 0 9.00049 0C13.9711 0 18.0005 4.02931 18.0005 8.99974V9.00026Z" fill="#9295A3"/>
<path d="M12.6636 4H14.3504L10.6653 8.2359L15.0005 14H11.6061L8.94751 10.5041L5.90546 14H4.2177L8.15921 9.46923L4.00049 4H7.48104L9.88419 7.19538L12.6636 4ZM12.0716 12.9846H13.0063L6.97319 4.96205H5.97022L12.0716 12.9846Z" fill="white"/>
</svg>
