<svg width="15" height="16" viewBox="0 0 15 16" fill="none" xmlns="http://www.w3.org/2000/svg">
<path d="M2.81569 10.0408C2.68613 9.92992 2.5799 9.83887 2.49988 9.77025V2.36831C2.54589 2.35466 2.59619 2.33996 2.65053 2.32434C2.96884 2.23288 3.42516 2.1105 3.97341 1.98805C5.07362 1.74231 6.52723 1.50012 7.97198 1.50012C9.42638 1.50012 10.8943 1.74243 12.0065 1.98829C12.5607 2.1108 13.0224 2.23324 13.3447 2.32476C13.4008 2.3407 13.4526 2.35569 13.5 2.36958V9.75988C13.4212 9.8231 13.3187 9.90536 13.1949 10.005C12.8789 10.2594 12.4235 10.6271 11.8653 11.0808C10.8223 11.9287 9.42014 13.0773 7.89921 14.348C6.48414 13.1623 5.13862 12.0216 4.12406 11.1577C3.57864 10.6933 3.12897 10.309 2.81569 10.0408Z" fill="white" stroke="black"/>
<path fill-rule="evenodd" clip-rule="evenodd" d="M12 5.00012H11V6H10V7H9V8H7.99991V9H9.00001V8H10V7H11V6.00002H12V5.00012ZM5 7H6V8H5V7ZM7 9H6V8H7V9ZM7 9H7.9999V10H7V9Z" fill="black"/>
</svg>
