<svg width="15" height="17" viewBox="0 0 15 17" fill="none" xmlns="http://www.w3.org/2000/svg">
<path fill-rule="evenodd" clip-rule="evenodd" d="M1.99991 3C1.99991 3 4.98131 2 7.97201 2C10.9813 2 14 3 14 3V10.9999C14 10.9999 11.1823 13.25 7.89911 15.9999C4.83361 13.4358 1.99991 10.9999 1.99991 10.9999V3Z" fill="#2F80ED"/>
<path fill-rule="evenodd" clip-rule="evenodd" d="M12 6H11V7H10V8H11V7H12V6ZM5 8H6V9H5V8ZM7 10H6V9H7V10ZM8 10V11H7V10H8ZM8 10V9H9.00009V8H9.99999V9H9.0001V10H8Z" fill="white"/>
</svg>
